<svg width="237" height="30" viewBox="0 0 237 30" fill="none" xmlns="http://www.w3.org/2000/svg">
<path d="M232.5 7.5C231.944 7.5 231.111 7.22222 230.556 6.94444C230 6.66667 229.444 6.11111 229.167 5.55556C228.889 5 228.611 4.44444 228.611 3.61111C228.611 2.77778 228.889 2.22222 229.167 1.66667C229.444 1.11111 230 0.555556 230.556 0.277778C231.111 0.277778 231.944 0 232.5 0C233.056 0 233.889 0.277778 234.444 0.555556C235 0.833333 235.556 1.38889 235.833 1.94444C236.111 2.5 236.111 3.05556 236.111 3.61111C236.111 4.44444 236.111 5 235.833 5.55556C235.556 6.11111 235 6.66667 234.444 6.94444C233.889 7.22222 233.333 7.5 232.5 7.5ZM229.722 3.61111C229.722 4.16667 230 4.72222 230 5.27778C230.278 5.83333 230.556 6.11111 231.111 6.38889C231.667 6.66667 231.944 6.66667 232.5 6.66667C233.056 6.66667 233.611 6.66667 233.889 6.38889C234.444 6.11111 234.722 5.83333 235 5.27778C235.278 4.72222 235.278 4.16667 235.278 3.61111C235.278 3.05556 235.278 2.5 235 1.94444C234.722 1.38889 234.444 1.11111 233.889 0.833333C233.333 0.555556 233.056 0.555556 232.5 0.555556C231.944 0.555556 231.389 0.555556 231.111 0.833333C230.556 1.11111 230.278 1.38889 230 1.94444C229.722 2.5 229.722 3.05556 229.722 3.61111ZM231.667 4.16667V6.11111H231.111V1.66667H232.778C233.333 1.66667 233.611 1.66667 233.889 1.94444C234.167 2.22222 234.167 2.5 234.167 2.77778C234.167 3.05556 234.167 3.33333 233.889 3.61111C233.611 3.88889 233.333 3.88889 233.056 3.88889L234.167 5.83333H233.333L232.222 3.88889H231.667V4.16667ZM231.667 2.22222V3.61111H232.5C232.778 3.61111 233.056 3.61111 233.333 3.61111C233.611 3.61111 233.611 3.33333 233.611 3.05556C233.611 2.77778 233.611 2.5 233.333 2.5C233.056 2.5 233.056 2.5 232.778 2.5L231.667 2.22222Z" fill="white"/>
<path d="M168.333 1.66667C167.778 2.22222 167.222 3.05556 166.944 4.16667L160 25.5556C159.722 26.6667 159.444 27.5 159.722 28.0556C160 28.6111 160.833 28.6111 162.5 28.6111H163.611L163.333 29.4444H144.444L144.722 28.6111C146.389 28.6111 147.5 28.6111 148.056 28.0556C148.611 27.7778 149.167 26.6667 149.722 25.5556L153.056 15.5556H142.5L139.167 25.5556C138.611 26.9444 138.611 27.7778 138.889 28.3333C139.167 28.6111 140.278 28.8889 142.222 28.6111L141.944 29.4444H125.556H123.611L123.889 28.6111C124.444 28.6111 125 28.6111 125.556 28.6111C126.389 28.6111 126.944 28.3333 127.5 28.3333C128.056 28.0556 128.611 27.2222 128.889 25.5556L136.111 4.16667C136.389 3.05556 136.667 2.22222 136.389 1.66667C136.111 1.38889 135.278 1.11111 133.889 1.11111H132.778L133.333 0H151.667L151.389 0.833333H150.556C149.167 0.833333 148.056 1.11111 147.778 1.38889C147.222 1.66667 146.944 2.77778 146.389 3.88889L143.333 13.3333H153.889L156.944 3.88889C157.222 2.5 157.5 1.66667 156.944 1.38889C156.667 1.11111 155.556 0.833333 153.889 0.833333L154.167 0H168.333H172.778L172.222 1.11111H171.111C169.722 1.11111 168.889 1.38889 168.333 1.66667Z" fill="white"/>
<path d="M177.222 22.7777H173.333L170.833 26.111C170.556 26.6666 170.278 27.2221 170 27.2221C169.722 27.7777 170 28.3332 170.278 28.3332C170.556 28.611 171.389 28.611 172.5 28.611L172.222 29.1666H168.889H164.722L165 28.611C165.833 28.611 166.667 28.3332 167.222 27.7777C167.778 27.4999 168.333 26.9443 169.167 25.8332C169.444 25.5554 169.444 25.2777 169.722 25.2777L177.5 14.7221L183.333 6.94434H185.556L188.889 26.6666C188.889 27.4999 189.167 27.7777 189.444 28.0554C189.444 28.3332 190 28.3332 190.555 28.3332L190.278 28.8888H177.778L178.055 28.3332C178.889 28.3332 179.722 28.3332 180 28.3332C180.833 28.0554 181.389 27.7777 181.667 27.2221C181.944 26.9443 181.944 26.3888 181.667 25.8332L180.556 22.7777H177.222ZM177.222 17.2221L174.167 21.3888H177.222H180.278L179.167 14.7221L177.222 17.2221Z" fill="white"/>
<path d="M23.3333 3.05556L16.1111 25.2778C15.5556 26.1111 15.5556 26.6667 15.5556 26.9444C15.8333 27.2222 16.3889 27.5 17.2222 27.5C19.4444 27.5 21.3889 26.9444 23.0556 25.5556C23.3333 25.2778 23.8889 25 24.1667 24.7222C26.1111 22.7778 27.7778 19.7222 29.1667 15.5556C32.2222 6.11111 30.8333 1.38889 25.2778 1.38889H23.6111L23.3333 3.05556ZM0 29.7222L0.277778 28.8889C2.22222 28.8889 3.61111 28.6111 4.44444 28.0556C5 27.5 5.55556 26.6667 6.11111 25.2778L13.0556 4.16667C13.6111 2.77778 13.6111 1.66667 13.0556 1.38889C12.5 1.11111 11.3889 0.833333 9.44444 1.11111L9.72222 0H23.3333H28.8889C33.3333 0 36.6667 1.38889 39.1667 3.88889C41.6667 6.66667 42.2222 10.2778 40.8333 15C39.4444 19.1667 36.9444 22.5 33.0556 25.2778C30.2778 27.5 26.9444 28.8889 23.3333 29.4444C21.9444 29.7222 20.2778 29.7222 18.6111 29.7222H0Z" fill="white"/>
<path d="M55.8333 7.77778C56.9444 7.5 58.0556 7.5 59.4444 7.5C63.8889 7.5 66.6667 8.61111 68.3333 10.8333C70 12.7778 70.2778 15.5556 69.1667 18.6111C68.3333 21.3889 66.6667 23.8889 63.8889 25.8333C61.6667 27.7778 58.8889 29.1667 55.5556 29.4444C54.4444 29.7222 53.0556 29.7222 51.9445 29.7222C47.2222 29.7222 44.1667 28.3333 42.5 25.8333C41.3889 23.8889 41.1111 21.3889 42.2222 18.6111C43.0556 15.5556 45 13.0556 47.7778 11.1111C50.2778 9.16667 52.7778 8.05556 55.8333 7.77778ZM55.8333 27.2222C57.7778 25.8333 59.4444 22.7778 60.8333 18.6111C62.7778 11.9444 62.2222 8.88889 58.8889 8.88889C57.7778 8.88889 56.9444 9.16667 55.8333 10C55.2778 10.2778 54.7222 10.8333 54.4444 11.3889C53.0556 13.0556 51.9444 15.5556 50.8333 18.6111C50 21.3889 49.7222 23.6111 49.7222 25.2778C50 27.2222 50.8333 28.6111 52.7778 28.6111C53.6111 28.3333 54.7222 27.7778 55.8333 27.2222Z" fill="white"/>
<path d="M84.7223 7.77778C85.8334 7.5 86.9445 7.5 88.3334 7.5C92.7779 7.5 95.5556 8.61111 97.2223 10.8333C98.889 12.7778 99.1667 15.5556 98.0556 18.6111C97.2223 21.3889 95.5556 23.8889 93.0556 25.8333C90.8334 27.7778 88.0556 29.1667 84.7223 29.4444C83.6112 29.7222 82.2223 29.7222 81.1112 29.7222C76.389 29.7222 73.3334 28.3333 71.6667 25.8333C70.5556 23.8889 70.2779 21.3889 71.389 18.6111C72.2223 15.5556 74.1668 13.0556 76.9445 11.1111C79.4445 9.16667 81.9445 8.05556 84.7223 7.77778ZM84.7223 27.2222C86.6668 25.8333 88.3334 22.7778 89.7223 18.6111C91.6667 11.9444 91.1112 8.88889 87.7779 8.88889C86.6668 8.88889 85.8334 9.16667 84.7223 10C84.1668 10.2778 83.6112 10.8333 83.3334 11.3889C81.9445 13.0556 80.8334 15.5556 79.7223 18.6111C78.889 21.3889 78.6112 23.6111 78.6112 25.2778C78.889 27.2222 79.7223 28.6111 81.6667 28.6111C82.7779 28.3333 83.889 27.7778 84.7223 27.2222Z" fill="white"/>
<path d="M113.333 8.88878H112.5L109.445 18.3332H111.111C111.945 18.3332 112.778 18.0554 113.611 17.7777C115.278 17.2221 116.389 15.5554 117.222 13.3332C117.778 11.9443 117.778 10.8332 117.5 9.99989C116.944 9.16656 116.111 8.611 114.722 8.611L113.333 8.88878ZM124.167 9.44434C124.722 10.2777 124.722 11.6666 124.444 13.3332C124.444 13.611 124.167 13.611 124.167 13.8888C123.056 16.3888 121.111 17.7777 117.778 18.8888L120.278 27.2221C120.556 28.3332 121.389 28.8888 122.5 28.8888L122.222 29.7221H113.056L110 19.4443H109.167L106.945 26.111C106.667 26.9443 106.667 27.7777 106.667 28.0554C106.945 28.611 108.056 28.8888 109.445 28.611L109.167 29.4443H96.3889H95.2778L95.5556 28.611H96.3889C97.2223 28.611 97.7778 28.3332 98.3334 28.0554C98.8889 27.7777 99.1667 27.2221 99.4445 26.3888L104.722 9.99989C105 9.16656 105 8.33323 104.722 8.05545C104.445 7.77767 103.333 7.49989 102.222 7.49989L102.5 6.94434H113.611H117.5C120.833 7.49989 123.056 8.05545 124.167 9.44434Z" fill="white"/>
<path d="M218.611 7.5L218.333 8.33333C220.556 8.33333 221.667 8.88889 221.111 10.5556L217.5 21.6667L209.167 7.77778H199.167L198.889 8.61111C199.722 8.61111 200 8.61111 200.556 8.88889C200.833 8.88889 201.111 9.16667 201.389 9.72222L201.944 10.5556L196.667 26.9444C196.111 28.6111 194.722 29.4444 192.5 29.4444L192.222 30H200.833L201.111 29.4444C199.722 29.4444 198.889 29.1667 198.611 28.8889C198.333 28.6111 198.333 27.7778 198.611 26.6667L202.778 11.9444L213.611 29.7222H216.667L222.778 10.5556C223.056 9.72222 223.333 9.16667 224.167 8.88889C224.722 8.61111 225.556 8.33333 226.667 8.33333L226.944 7.5H218.611Z" fill="white"/>
</svg>
