<svg width="105" height="28" viewBox="0 0 105 28" fill="none" xmlns="http://www.w3.org/2000/svg">
<path d="M72.6833 21.7587C72.6833 20.2421 71.4583 19.9504 70.6417 19.9504C68.775 19.9504 66.9083 21.8171 66.9083 24.7337C66.9083 26.0754 67.4917 27.0087 69.125 27.0087C69.8833 27.0087 71.2833 26.6587 72.1 24.6171H73.2083C72.0417 27.8837 69.3583 28.0004 68.7167 28.0004C67.0833 28.0004 65.625 27.1254 65.625 24.8504C65.625 21.5837 67.8417 18.9004 70.7583 18.9004C72.8583 18.9004 73.7333 20.1254 73.7333 21.4087C73.7333 21.5254 73.7333 21.5837 73.7333 21.7004L72.6833 21.7587Z" fill="white"/>
<path d="M75.3668 26.7171H79.6835L79.5085 27.7671H73.9668L75.7751 19.1338H76.9418L75.3668 26.7171Z" fill="white"/>
<path d="M83.6502 19.1335L82.4835 24.5585C82.4252 24.7919 82.4252 25.0252 82.4252 25.3169C82.4252 26.6002 83.3002 26.9502 84.2335 26.9502C85.6335 27.0085 86.8002 25.9585 86.9752 24.5585L88.1419 19.0752H89.3085L88.1419 24.6752C87.7335 26.6585 85.9835 28.0585 83.9419 27.9419C82.0169 27.9419 81.2002 26.8919 81.2002 25.6085C81.2002 25.3752 81.2002 25.0835 81.2585 24.8502L82.4835 19.0752L83.6502 19.1335Z" fill="white"/>
<path d="M91.35 22.8088H93.45C94.6166 22.8088 95.55 22.4005 95.55 21.1171C95.55 20.4755 95.1416 20.1255 93.975 20.1255H91.875L91.35 22.8088ZM90.5333 26.7755H93.0416C94.3833 26.7755 95.2583 26.0171 95.2583 24.8505C95.2583 23.9755 94.325 23.7421 93.5083 23.7421H91.2333L90.5333 26.7755ZM91 19.1338H94.7916C96.1916 19.1338 96.8333 19.8338 96.8333 20.8255C96.8333 21.8755 96.1916 22.8088 95.2583 23.1588C95.9583 23.3338 96.425 23.9755 96.425 24.6755C96.425 26.3088 95.025 27.7671 92.8666 27.7671H89.1333L91 19.1338Z" fill="white"/>
<path d="M103.367 4.20039C103.075 4.20039 102.783 4.14206 102.55 3.96706C102.317 3.79206 102.083 3.55872 101.967 3.32539C101.792 3.03372 101.733 2.68372 101.733 2.33372C101.733 1.98372 101.792 1.69206 101.967 1.40039C102.083 1.10872 102.317 0.933724 102.55 0.758724C102.783 0.583724 103.075 0.525391 103.367 0.525391C103.658 0.525391 103.95 0.583724 104.183 0.758724C104.417 0.933724 104.65 1.16706 104.767 1.40039C104.942 1.69206 105 2.04206 105 2.33372C105 2.68372 104.942 2.97539 104.767 3.32539C104.65 3.61706 104.417 3.79206 104.183 3.96706C103.95 4.14206 103.658 4.25872 103.367 4.20039ZM102.025 2.39206C102.025 2.68372 102.083 2.91706 102.2 3.20872C102.317 3.44206 102.492 3.61706 102.667 3.73372C103.075 4.02539 103.6 4.02539 104.008 3.73372C104.183 3.61706 104.358 3.38372 104.475 3.20872C104.592 2.97539 104.65 2.68372 104.65 2.39206C104.65 2.10039 104.592 1.86706 104.475 1.57539C104.358 1.34206 104.183 1.16706 104.008 1.05039C103.6 0.758724 103.075 0.758724 102.667 1.05039C102.433 1.16706 102.317 1.40039 102.2 1.57539C102.083 1.80872 102.025 2.10039 102.025 2.39206ZM103.017 2.50872V3.44206H102.725V1.28372H103.425C103.6 1.28372 103.775 1.34206 103.95 1.45872C104.067 1.57539 104.125 1.75039 104.125 1.92539C104.125 2.10039 104.067 2.21706 104.008 2.33372C103.892 2.45039 103.775 2.50872 103.658 2.50872L104.183 3.44206H103.833L103.308 2.50872H103.017ZM103.017 1.57539V2.27539H103.367C103.483 2.27539 103.6 2.27539 103.717 2.21706C103.775 2.15872 103.833 2.10039 103.833 1.92539C103.833 1.75039 103.775 1.69206 103.717 1.63372C103.6 1.57539 103.542 1.57539 103.425 1.57539H103.017Z" fill="white"/>
<path d="M94.9665 14.9915L90.0665 6.00814H90.0082L87.9665 13.0665C87.7915 13.4165 87.7915 13.7665 87.9665 14.1165C88.3165 14.3498 88.7249 14.4665 89.1332 14.4665L89.0749 14.8165H85.2832L85.3415 14.4665C86.1582 14.5248 86.9165 13.9998 87.1499 13.1831L89.5415 5.0748L89.3082 4.66647C89.2499 4.49147 89.1332 4.3748 88.9582 4.25814C88.7249 4.1998 88.4915 4.14147 88.2582 4.14147L88.3165 3.73314H92.8082L96.5415 10.6165H96.5999L98.1749 5.19147C98.4082 4.43314 97.9999 4.0248 97.0082 4.08314L97.1249 3.6748H100.742L100.625 4.08314C100.217 4.08314 99.8665 4.14147 99.5165 4.3748C99.2249 4.60814 99.0499 4.8998 98.9332 5.2498L96.1332 14.8748L94.9665 14.9915Z" fill="white"/>
<path d="M74.7252 0.933138C74.3752 1.28314 74.1419 1.69147 74.0252 2.15814L70.9335 12.8331C70.7585 13.1831 70.7585 13.5915 70.8169 13.9998C70.9335 14.2331 71.3419 14.3498 72.0419 14.3498H72.5085L72.3919 14.8165H64.1669L64.3419 14.3498C64.8669 14.4081 65.3919 14.3498 65.8585 14.1165C66.2085 13.7665 66.4419 13.2998 66.5585 12.8331L68.0169 7.81647H63.3502L61.8919 12.8331C61.6585 13.5331 61.6585 13.9998 61.7752 14.1748C62.2419 14.4081 62.7669 14.4665 63.2335 14.3498L63.1169 14.8165H54.9502L55.1252 14.3498C55.3585 14.3498 55.5919 14.3498 55.8252 14.3498C56.1169 14.3498 56.4085 14.2915 56.7002 14.1748C57.0502 13.8248 57.2835 13.3581 57.4002 12.8331L60.5502 2.21647C60.7252 1.86647 60.7252 1.45814 60.6669 1.0498C60.5502 0.874804 60.2002 0.699804 59.5585 0.699804H59.0919L59.2669 0.174805H67.4335L67.3169 0.641471H66.7919C66.3252 0.583138 65.8585 0.699804 65.5085 0.991471C65.2169 1.34147 65.0419 1.7498 64.9252 2.15814L63.5835 6.76647H68.2502L69.5919 2.15814C69.7669 1.51647 69.8252 1.0498 69.6502 0.874804C69.4752 0.699804 69.0669 0.641471 68.3085 0.641471L68.4252 0.174805H76.6502L76.4752 0.641471H75.9502C75.5419 0.641471 75.0752 0.699804 74.7252 0.933138Z" fill="white"/>
<path d="M78.7502 11.3746H77.0002L75.8918 13.0663C75.7752 13.2413 75.6585 13.4746 75.5418 13.6496C75.4835 13.9996 75.4835 14.1746 75.6585 14.2913C75.9502 14.4663 76.3002 14.5246 76.7085 14.4663L76.5918 14.8163H73.2085L73.3252 14.4663C73.6752 14.4663 74.0252 14.2913 74.3168 14.1163C74.6668 13.8246 74.9002 13.5329 75.1335 13.1829C75.1918 13.0663 75.3085 12.9496 75.3668 12.8329L78.8085 7.64127L81.3168 3.84961H82.3085L83.7085 13.6496C83.7668 14.0579 83.8252 14.2913 83.9418 14.2913C84.0585 14.2913 84.1752 14.4663 84.4085 14.4663L84.3502 14.8163H78.8085L78.8668 14.4663C79.2752 14.4663 79.6252 14.4079 79.7418 14.4079C80.1502 14.2913 80.3252 14.1746 80.4418 13.8829C80.5002 13.6496 80.5585 13.4163 80.5002 13.1829L80.2085 11.3746H78.7502ZM78.7502 8.69127L77.4085 10.6746H80.0918L79.6252 7.40794L78.7502 8.69127Z" fill="white"/>
<path d="M10.325 1.51667L7.11667 12.4833C7 12.775 6.94167 13.0667 7 13.3583C7.11667 13.5333 7.35 13.65 7.75833 13.65C8.69167 13.7083 9.625 13.3583 10.3833 12.7167C10.5583 12.6 10.675 12.425 10.85 12.3083C11.725 11.375 12.425 9.91666 13.0083 7.81666C14.2917 3.20833 13.7083 0.875 11.2583 0.875H10.5L10.325 1.51667ZM0 14.6417L0.116667 14.175C0.758333 14.2917 1.45833 14.1167 1.98333 13.7667C2.33333 13.3583 2.56667 12.8917 2.68333 12.3667L5.71667 1.98333C5.95 1.28333 5.95 0.816666 5.775 0.641666C5.25 0.466666 4.66667 0.408333 4.14167 0.525L4.25833 0H12.8333C14.875 0 16.3333 0.641666 17.3833 1.86667C18.4917 3.20833 18.725 5.01666 18.0833 7.35C17.5 9.33333 16.275 11.1417 14.6417 12.425C13.4167 13.475 11.9 14.175 10.325 14.4083C9.625 14.525 8.98333 14.5833 8.28333 14.5833L0 14.6417Z" fill="white"/>
<path d="M24.6752 3.67526C25.2002 3.55859 25.7835 3.55859 26.3085 3.55859C28.2919 3.55859 29.6335 4.08359 30.3919 5.19193C31.0919 6.18359 31.2669 7.52526 30.8002 9.10026C30.3919 10.5586 29.5752 11.8419 28.4669 12.8336C27.4169 13.8253 26.1335 14.4669 24.6752 14.7003C24.1502 14.8169 23.5669 14.8169 22.9835 14.8169C20.7669 14.8169 19.3669 14.1753 18.7252 12.8336C18.2002 11.6669 18.1419 10.3836 18.5502 9.15859C18.9585 7.64193 19.8335 6.30026 21.0585 5.30859C22.1669 4.43359 23.3919 3.90859 24.6752 3.67526ZM24.6752 13.5919C25.5502 12.8336 26.3085 11.3753 27.0085 9.27526C27.9419 5.95026 27.7085 4.25859 26.1335 4.25859C25.6085 4.25859 25.0835 4.49193 24.7335 4.84193C24.5002 5.07526 24.2669 5.30859 24.0335 5.54193C23.2752 6.65026 22.6919 7.87526 22.3419 9.15859C21.9919 10.2086 21.8169 11.3753 21.8169 12.4836C21.8752 13.5336 22.4002 14.1169 23.2169 14.1169C23.8002 14.1169 24.2669 13.9419 24.6752 13.5919Z" fill="white"/>
<path d="M37.7416 3.67526C38.2666 3.55859 38.8499 3.55859 39.3749 3.55859C41.3583 3.55859 42.6999 4.08359 43.4583 5.19193C44.1583 6.18359 44.3333 7.52526 43.8083 9.10026C43.3999 10.5586 42.5833 11.8419 41.4749 12.8336C40.4249 13.8253 39.1416 14.4669 37.7416 14.7003C37.2166 14.8169 36.6333 14.8169 36.0499 14.8169C33.8916 14.8169 32.4333 14.1753 31.7916 12.8336C31.2666 11.6669 31.2083 10.3836 31.6166 9.15859C32.0249 7.64193 32.8999 6.30026 34.1249 5.30859C35.1749 4.43359 36.3999 3.90859 37.7416 3.67526ZM37.7416 13.5919C38.6166 12.8336 39.3749 11.3753 40.0749 9.27526C41.0083 5.95026 40.7749 4.25859 39.1999 4.25859C38.6749 4.25859 38.1499 4.49193 37.7999 4.84193C37.5666 5.07526 37.3333 5.25026 37.0999 5.54193C36.3416 6.65026 35.7583 7.87526 35.4083 9.15859C35.0583 10.2086 34.8833 11.3753 34.8833 12.4836C34.9416 13.5336 35.4666 14.1169 36.2833 14.1169C36.8083 14.0586 37.3333 13.8836 37.7416 13.5919Z" fill="white"/>
<path d="M50.3417 4.49147H49.9334L48.5917 9.15814H49.2917C49.6417 9.15814 49.9917 9.0998 50.3417 8.9248C51.1584 8.51647 51.8001 7.6998 51.9167 6.76647C52.0917 6.24147 52.1501 5.65814 51.9751 5.13314C51.7417 4.66647 51.2751 4.3748 50.7501 4.43314H50.3417V4.49147ZM55.1251 4.84147C55.4167 5.4248 55.4751 6.18314 55.2417 6.8248C55.1834 6.88314 55.1251 6.9998 55.1251 7.11647C54.6001 8.34147 53.6084 9.21647 52.3251 9.56647L53.4917 13.6498C53.5501 14.1165 54.0167 14.4665 54.4834 14.4081L54.3667 14.7581H50.3417L48.8251 9.74147H48.4167L47.4251 13.0665C47.3084 13.3581 47.2501 13.7081 47.3084 13.9998C47.4251 14.2915 47.8334 14.4081 48.5334 14.3498L48.4167 14.6998H42.2334L42.3501 14.3498H42.7584C43.0501 14.3498 43.3417 14.2915 43.6334 14.1165C43.8667 13.8831 44.0417 13.5915 44.1584 13.2998L46.4917 5.19147C46.6084 4.8998 46.6084 4.5498 46.4917 4.25814C46.1417 4.0248 45.7334 3.90814 45.3251 4.0248L45.4417 3.6748H52.2084C53.7251 3.8498 54.6584 4.14147 55.1251 4.84147Z" fill="white"/>
</svg>
