<svg width="15" height="16" viewBox="0 0 15 16" fill="none" xmlns="http://www.w3.org/2000/svg">
<path d="M9.10714 9.54464C9.89286 8.75893 10.2857 7.81548 10.2857 6.71429C10.2857 5.61309 9.89286 4.67262 9.10714 3.89286C8.32738 3.10714 7.38691 2.71428 6.28571 2.71428C5.18452 2.71428 4.24107 3.10714 3.45536 3.89286C2.6756 4.67262 2.28571 5.61309 2.28571 6.71429C2.28571 7.81548 2.6756 8.75893 3.45536 9.54464C4.24107 10.3244 5.18452 10.7143 6.28571 10.7143C7.38691 10.7143 8.32738 10.3244 9.10714 9.54464ZM14.8571 14.1429C14.8571 14.4524 14.744 14.7202 14.5179 14.9464C14.2917 15.1726 14.0238 15.2857 13.7143 15.2857C13.3929 15.2857 13.125 15.1726 12.9107 14.9464L9.84822 11.8929C8.78274 12.631 7.59524 13 6.28571 13C5.43452 13 4.61905 12.8363 3.83929 12.5089C3.06548 12.1756 2.39583 11.7292 1.83036 11.1696C1.27083 10.6042 0.824405 9.93452 0.491071 9.16071C0.16369 8.38095 0 7.56548 0 6.71429C0 5.86309 0.16369 5.05059 0.491071 4.27678C0.824405 3.49702 1.27083 2.82738 1.83036 2.26786C2.39583 1.70238 3.06548 1.25595 3.83929 0.928571C4.61905 0.595237 5.43452 0.428571 6.28571 0.428571C7.13691 0.428571 7.94941 0.595237 8.72322 0.928571C9.50298 1.25595 10.1726 1.70238 10.7321 2.26786C11.2976 2.82738 11.744 3.49702 12.0714 4.27678C12.4048 5.05059 12.5714 5.86309 12.5714 6.71429C12.5714 8.02381 12.2024 9.21131 11.4643 10.2768L14.5268 13.3393C14.747 13.5595 14.8571 13.8274 14.8571 14.1429Z" fill="#3997ED"/>
<path d="M9.10714 9.54464L8.96572 9.40322L9.10714 9.54464ZM9.10714 3.89286L8.96518 4.03374L8.96626 4.03481L9.10714 3.89286ZM3.45536 3.89286L3.59678 4.03428L3.45536 3.89286ZM3.45536 9.54464L3.3134 9.68553L3.31447 9.6866L3.45536 9.54464ZM12.9107 14.9464L13.056 14.8088L13.0519 14.8048L12.9107 14.9464ZM9.84822 11.8929L9.98943 11.7512L9.87137 11.6335L9.73433 11.7285L9.84822 11.8929ZM3.83929 12.5089L3.76016 12.6926L3.76186 12.6933L3.83929 12.5089ZM1.83036 11.1696L1.68818 11.3103L1.68969 11.3118L1.83036 11.1696ZM0.491071 9.16071L0.306657 9.23814L0.307389 9.23984L0.491071 9.16071ZM0.491071 4.27678L0.307169 4.19817L0.306878 4.19886L0.491071 4.27678ZM1.83036 2.26786L1.68894 2.12644L1.83036 2.26786ZM3.83929 0.928571L3.91721 1.11277L3.9179 1.11247L3.83929 0.928571ZM8.72322 0.928571L8.64409 1.11226L8.64579 1.11298L8.72322 0.928571ZM10.7321 2.26786L10.59 2.40854L10.5915 2.41002L10.7321 2.26786ZM12.0714 4.27678L11.887 4.35421L11.8877 4.35591L12.0714 4.27678ZM11.4643 10.2768L11.2999 10.1629L11.2048 10.3001L11.3229 10.4182L11.4643 10.2768ZM14.5268 13.3393L14.6682 13.1979L14.5268 13.3393ZM9.24856 9.68606C10.0714 8.86322 10.4857 7.86906 10.4857 6.71428H10.0857C10.0857 7.76189 9.71431 8.65463 8.96572 9.40322L9.24856 9.68606ZM10.4857 6.71428C10.4857 5.55947 10.0714 4.56799 9.24803 3.7509L8.96626 4.03481C9.71436 4.77725 10.0857 5.66672 10.0857 6.71428H10.4857ZM9.2491 3.75197C8.43201 2.92865 7.44053 2.51429 6.28571 2.51429V2.91428C7.33328 2.91428 8.22275 3.28564 8.96519 4.03374L9.2491 3.75197ZM6.28571 2.51429C5.13094 2.51429 4.13678 2.9286 3.31394 3.75144L3.59678 4.03428C4.34537 3.28569 5.23811 2.91428 6.28571 2.91428V2.51429ZM3.31394 3.75144C2.49673 4.56864 2.08571 5.55997 2.08571 6.71428H2.48571C2.48571 5.66622 2.85446 4.77659 3.59678 4.03428L3.31394 3.75144ZM2.08571 6.71428C2.08571 7.86857 2.49668 8.86257 3.3134 9.68552L3.59732 9.40376C2.85451 8.65529 2.48571 7.76239 2.48571 6.71428H2.08571ZM3.31447 9.6866C4.13743 10.5033 5.13143 10.9143 6.28571 10.9143V10.5143C5.23761 10.5143 4.34471 10.1455 3.59624 9.40268L3.31447 9.6866ZM6.28571 10.9143C7.44003 10.9143 8.43136 10.5033 9.24856 9.68606L8.96572 9.40322C8.22341 10.1455 7.33378 10.5143 6.28571 10.5143V10.9143ZM14.6571 14.1429C14.6571 14.3974 14.5665 14.6149 14.3764 14.805L14.6593 15.0879C14.9216 14.8256 15.0571 14.5074 15.0571 14.1429H14.6571ZM14.3764 14.805C14.1863 14.9951 13.9688 15.0857 13.7143 15.0857V15.4857C14.0788 15.4857 14.397 15.3501 14.6593 15.0879L14.3764 14.805ZM13.7143 15.0857C13.4458 15.0857 13.2311 14.9938 13.0559 14.8089L12.7655 15.084C13.0189 15.3514 13.3399 15.4857 13.7143 15.4857V15.0857ZM13.0519 14.8048L9.98943 11.7512L9.707 12.0345L12.7695 15.0881L13.0519 14.8048ZM9.73433 11.7285C8.70267 12.4431 7.55499 12.8 6.28571 12.8V13.2C7.63549 13.2 8.8628 12.8188 9.9621 12.0573L9.73433 11.7285ZM6.28571 12.8C5.46093 12.8 4.67179 12.6415 3.91671 12.3245L3.76186 12.6933C4.5663 13.0311 5.40811 13.2 6.28571 13.2V12.8ZM3.91841 12.3252C3.16616 12.0012 2.51773 11.5684 1.97103 11.0275L1.68969 11.3118C2.27394 11.8899 2.9648 12.35 3.76016 12.6926L3.91841 12.3252ZM1.97252 11.029C1.43158 10.4823 0.998802 9.83384 0.674754 9.08159L0.307389 9.23984C0.650008 10.0352 1.11009 10.7261 1.68819 11.3103L1.97252 11.029ZM0.675478 9.08329C0.358458 8.32821 0.2 7.53907 0.2 6.71428H-0.2C-0.2 7.59189 -0.0310769 8.4337 0.306665 9.23814L0.675478 9.08329ZM0.2 6.71428C0.2 5.88951 0.358455 5.10354 0.675265 4.35471L0.306878 4.19886C-0.0310736 4.99765 -0.2 5.83668 -0.2 6.71428H0.2ZM0.674973 4.3554C0.999006 3.59739 1.43155 2.94951 1.97178 2.40928L1.68894 2.12644C1.11012 2.70526 0.649803 3.39665 0.30717 4.19817L0.674973 4.3554ZM1.97178 2.40928C2.51813 1.86293 3.16591 1.43063 3.91721 1.11276L3.76136 0.744377C2.96505 1.08128 2.27354 1.54183 1.68894 2.12644L1.97178 2.40928ZM3.9179 1.11247C4.67272 0.789802 5.46144 0.628571 6.28571 0.628571V0.228571C5.4076 0.228571 4.56538 0.400673 3.76067 0.744669L3.9179 1.11247ZM6.28571 0.628571C7.10998 0.628571 7.89553 0.789798 8.64409 1.11225L8.80234 0.744888C8.00328 0.400677 7.16383 0.228571 6.28571 0.228571V0.628571ZM8.64579 1.11298C9.40286 1.43083 10.0501 1.8629 10.59 2.40853L10.8743 2.12719C10.2951 1.54186 9.6031 1.08107 8.80064 0.744164L8.64579 1.11298ZM10.5915 2.41002C11.1371 2.9499 11.5692 3.59714 11.887 4.35421L12.2558 4.19936C11.9189 3.3969 11.4581 2.70486 10.8728 2.12569L10.5915 2.41002ZM11.8877 4.35591C12.2102 5.10447 12.3714 5.89002 12.3714 6.71428H12.7714C12.7714 5.83617 12.5993 4.99672 12.2551 4.19766L11.8877 4.35591ZM12.3714 6.71428C12.3714 7.98356 12.0145 9.13124 11.2999 10.1629L11.6287 10.3907C12.3902 9.29138 12.7714 8.06406 12.7714 6.71428H12.3714ZM11.3229 10.4182L14.3854 13.4807L14.6682 13.1979L11.6057 10.1354L11.3229 10.4182ZM14.3854 13.4807C14.5676 13.6629 14.6571 13.8797 14.6571 14.1429H15.0571C15.0571 13.7751 14.9265 13.4561 14.6682 13.1979L14.3854 13.4807Z" fill="white"/>
</svg>
