<svg width="21" height="20" viewBox="0 0 21 20" fill="none" xmlns="http://www.w3.org/2000/svg">
<path d="M16.8757 15.9844L16.8746 15.9893C16.8023 16.3 16.7169 16.5903 16.6099 16.8352C16.4585 17.1902 16.2036 17.4768 15.94 17.7059C15.668 17.9421 15.3357 18.1611 14.9636 18.3675L14.9556 18.3719L14.9556 18.3719C14.21 18.7764 13.4309 19 12.6293 19C12.4132 19 12.1992 18.988 11.9876 18.9636L11.9689 18.9614L11.9502 18.9585C11.729 18.9245 11.4963 18.8715 11.2548 18.8036L11.2467 18.8013L11.2468 18.8013C11.0395 18.7411 10.8759 18.6924 10.76 18.6562L10.7229 18.6446L10.6869 18.6302C10.5988 18.595 10.4261 18.5289 10.1602 18.4292C9.88724 18.3269 9.74571 18.2752 9.70793 18.2626L9.69783 18.2592L9.68781 18.2557C8.98045 18.003 8.33432 17.6983 7.75511 17.3373L16.8757 15.9844ZM16.8757 15.9844C16.9491 15.6615 17 15.3434 17 15.0568C17 14.9297 16.9912 14.7125 16.9037 14.4892C16.8216 14.2721 16.6893 14.1234 16.6117 14.0449C16.5175 13.9496 16.4149 13.8703 16.3234 13.8065C16.1466 13.6832 15.9285 13.561 15.689 13.4403C15.554 13.3626 15.3747 13.2633 15.1546 13.1439C14.9269 13.0202 14.719 12.9066 14.5309 12.8028C14.3657 12.7084 14.2095 12.6171 14.0621 12.529C14.0044 12.4885 13.9229 12.4338 13.8331 12.3739C13.676 12.2625 13.51 12.1575 13.3421 12.078C13.1301 11.9741 12.8896 11.9091 12.6293 11.9091C12.3254 11.9091 12.0754 12.0166 11.9038 12.1161C11.7303 12.2168 11.5765 12.3444 11.4436 12.4722C11.2024 12.698 10.9827 12.9461 10.7842 13.2153C10.6832 13.3482 10.5785 13.4748 10.4701 13.5951C10.4667 13.5931 10.4633 13.5911 10.4598 13.5891C10.4105 13.5572 10.3691 13.5307 10.3369 13.5103C10.3362 13.5099 10.3352 13.5092 10.3339 13.5084C10.3206 13.5 10.2771 13.4722 10.2308 13.4466L10.2308 13.4466C9.3937 12.9822 8.69204 12.4596 8.1162 11.8838C7.54036 11.308 7.01783 10.6063 6.55344 9.76916L6.55339 9.76919C6.52777 9.72289 6.50004 9.67939 6.4916 9.66614C6.49076 9.66481 6.4901 9.66379 6.48966 9.66309C6.4693 9.63085 6.44281 9.58953 6.41092 9.54017C6.40889 9.53672 6.40688 9.5333 6.4049 9.52992C6.52522 9.42148 6.65177 9.31676 6.78473 9.21582C7.05391 9.01732 7.30202 8.79756 7.52782 8.55641C7.65562 8.42352 7.7832 8.26972 7.88385 8.09618C7.98336 7.92462 8.09091 7.67462 8.09091 7.37074C8.09091 7.1104 8.02591 6.86986 7.92204 6.65785M16.8757 15.9844L7.92204 6.65785M7.92204 6.65785C7.8425 6.49003 7.73755 6.32398 7.62608 6.16689C7.56621 6.07713 7.51146 5.99562 7.47099 5.93786C7.38288 5.79048 7.29163 5.63426 7.19722 5.46913C7.09343 5.28097 6.97975 5.07308 6.85613 4.84535C6.73669 4.62533 6.63736 4.44604 6.55968 4.31096C6.43904 4.0715 6.31678 3.85339 6.19347 3.67657C6.12967 3.58508 6.05041 3.48254 5.95514 3.38834C5.87658 3.31067 5.72788 3.17844 5.51084 3.09631C5.28753 3.00884 5.07025 3 4.94318 3C4.65657 3 4.33847 3.05092 4.01559 3.1243L4.01559 3.12429L4.0107 3.12542C3.69726 3.19832 3.40461 3.28457 3.15834 3.39292L7.92204 6.65785ZM4.95198 15.048C5.89892 15.995 6.83285 16.7635 7.75508 17.3373L2.66245 12.2444C3.23627 13.1668 4.00488 14.1009 4.95198 15.048Z" stroke="#EF7F1A" stroke-width="2"/>
<path d="M18.6751 8.41414C18.2607 8.82852 17.2586 6.7833 15.3791 4.90378C13.4996 3.02426 11.4544 2.02218 11.8688 1.6078C12.2831 1.19341 15.0002 1.52365 16.8797 3.40317C18.7593 5.28269 19.0895 7.99976 18.6751 8.41414Z" fill="#EF7F1A"/>
<path d="M14.7579 9.49688C14.3435 9.91127 13.9944 8.5191 12.9205 7.44515C11.8466 6.37121 10.4544 6.02218 10.8688 5.6078C11.2831 5.19341 13.3472 4.8706 14.4211 5.94454C15.495 7.01849 15.1722 9.0825 14.7579 9.49688Z" fill="#EF7F1A"/>
</svg>
